<?xml version="1.0"?><svg width="640" height="480" xmlns="http://www.w3.org/2000/svg">
 <metadata id="metadata2999">image/svg+xml</metadata>
 <g>
  <title>Layer 1</title>
  <g id="g3782">
   <path id="path2991" d="m293.940002,406.846008l170.355011,0l0,-24.988007l0.024994,-1.878998l0.074982,-1.878998l0.126007,-1.877014l0.175995,-1.873993l0.227997,-1.872009l0.277008,-1.867004l0.326996,-1.862l0.377014,-1.855988l0.427002,-1.848999l0.47699,-1.841003l0.526001,-1.833008l0.574005,-1.823975l0.622986,-1.814026l0.673004,-1.802979l0.721008,-1.791016l0.768005,-1.778992l0.816986,-1.764008l0.863007,-1.751984l0.910004,-1.736023l0.957001,-1.720001l1.001984,-1.703979l1.050018,-1.687012l1.09198,-1.667999l1.138,-1.649994l1.181,-1.630005l1.226013,-1.609985l1.269012,-1.58902l1.310974,-1.567993l1.35202,-1.545013l1.46698,-1.674988l1.424011,-1.697998l1.378998,-1.721008l1.334015,-1.742981l1.287994,-1.765015l1.242981,-1.783997l1.196014,-1.804993l1.148987,-1.824005l1.101013,-1.842987l1.053009,-1.859009l1.005981,-1.876007l0.95401,-1.893005l0.90799,-1.90799l0.855011,-1.921997l0.808014,-1.934998l0.754974,-1.947998l0.706024,-1.960999l0.652985,-1.971008l0.604004,-1.981018l0.550995,-1.990997l0.501007,-1.998993l0.446991,-2.006989l0.39502,-2.014008l0.342987,-2.019989l0.290985,-2.025024l0.237,-2.028992l0.185028,-2.03299l0.131989,-2.036011l0.079987,-2.036987l0.026001,-2.037994l0,-116.282013l-0.024994,-0.994995l-0.075989,-0.992004l-0.127014,-0.990005l-0.175995,-0.983994l-0.226013,-0.977997l-0.27597,-0.971008l-0.326019,-0.960999l-0.373993,-0.94899l-0.420013,-0.937012l-0.470001,-0.921997l-0.515991,-0.908005l-0.561005,-0.888992l-0.606995,-0.871002l-0.648987,-0.852005l-0.693024,-0.830002l-0.734985,-0.806992l-0.773987,-0.781998l-0.814026,-0.758011l-0.85199,-0.730988l-0.888,-0.703003l-0.924011,-0.675003l-0.957001,-0.643997l-0.98999,-0.613007l-1.018005,-0.582001l-1.048981,-0.547989l-1.074005,-0.514999l-1.100006,-0.480011l-1.125,-0.444l-1.145996,-0.40799l-1.165009,-0.372009l-1.18399,-0.332993l-1.199005,-0.296997l-1.213989,-0.257004l-1.223999,-0.219009l-1.237,-0.179001l-1.244019,-0.138992l-1.25,-0.100998l-1.253998,-0.059006l-1.256989,-0.020996l-1.255005,0.020996l-1.255005,0.059006l-1.248993,0.100998l-1.243011,0.138992l-1.237,0.179001l-1.225006,0.219009l-1.214996,0.257004l-1.199005,0.296997l-1.181976,0.332993l-1.166016,0.372009l-1.147003,0.40799l-1.122986,0.444l-1.100006,0.480011l-1.075989,0.514999l-1.046997,0.547989l-1.02002,0.582001l-0.988007,0.613007l-0.957977,0.643997l-0.923004,0.675003l-0.889008,0.703003l-0.85199,0.730988l-0.813995,0.758011l-0.775024,0.781998l-0.734985,0.806992l-0.69101,0.830002l-0.651001,0.852005l-0.605988,0.871002l-0.561005,0.888992l-0.515991,0.908005l-0.468018,0.921997l-0.421997,0.937012l-0.375,0.94899l-0.324005,0.960999l-0.276978,0.971008l-0.226013,0.977997l-0.175995,0.983994l-0.126007,0.990005l-0.076996,0.992004l-0.026001,0.994995l0,-21.117996l-0.023987,-0.998001l-0.077026,-0.996002l-0.126984,-0.992996l-0.177002,-0.988998l-0.22699,-0.98201l-0.277008,-0.972992l-0.326996,-0.964005l-0.375,-0.953995l-0.423004,-0.940002l-0.468994,-0.926003l-0.519012,-0.909996l-0.562988,-0.893005l-0.608002,-0.874001l-0.652008,-0.854996l-0.695984,-0.833l-0.737,-0.810005l-0.778015,-0.784996l-0.816986,-0.760002l-0.854004,-0.734001l-0.893005,-0.705994l-0.927002,-0.677002l-0.959015,-0.647003l-0.991974,-0.614998l-1.024017,-0.584l-1.052002,-0.550003l-1.078979,-0.516998l-1.105011,-0.481003l-1.127991,-0.445999l-1.150024,-0.409996l-1.168976,-0.372002l-1.188019,-0.335999l-1.203979,-0.297005l-1.218018,-0.257996l-1.230011,-0.220001l-1.23999,-0.18l-1.248993,-0.139999l-1.252991,-0.099998l-1.26001,-0.061005l-1.261017,-0.018997l-1.259979,0.018997l-1.259003,0.061005l-1.253998,0.099998l-1.248993,0.139999l-1.240021,0.18l-1.22998,0.220001l-1.219025,0.257996l-1.202972,0.297005l-1.188019,0.335999l-1.169006,0.372002l-1.151001,0.409996l-1.126984,0.445999l-1.105011,0.481003l-1.078979,0.516998l-1.051025,0.550003l-1.023987,0.584l-0.993011,0.614998l-0.960999,0.647003l-0.925995,0.677002l-0.891998,0.705994l-0.854004,0.734001l-0.816986,0.760002l-0.778015,0.784996l-0.737,0.810005l-0.695007,0.833l-0.652985,0.854996l-0.606995,0.874001l-0.563019,0.893005l-0.518982,0.909996l-0.471008,0.926003l-0.421997,0.940002l-0.377014,0.953995l-0.324982,0.964005l-0.278015,0.972992l-0.225983,0.98201l-0.177002,0.988998l-0.127014,0.992996l-0.075989,0.996002l-0.027008,0.998001l0,-9.452003l-0.02298,-0.998001l-0.077026,-0.996002l-0.126984,-0.992996l-0.177002,-0.988998l-0.22699,-0.981003l-0.278015,-0.973999l-0.326996,-0.964996l-0.373993,-0.952003l-0.423004,-0.941002l-0.471008,-0.925995l-0.516998,-0.910004l-0.563995,-0.892998l-0.609009,-0.875l-0.652008,-0.854004l-0.695984,-0.832001l-0.737,-0.809998l-0.777008,-0.786003l-0.81601,-0.760994l-0.855988,-0.734001l-0.891998,-0.705002l-0.925995,-0.677002l-0.959991,-0.646996l-0.993011,-0.616005l-1.02301,-0.583l-1.052979,-0.550995l-1.07901,-0.514999l-1.104004,-0.482002l-1.127991,-0.445999l-1.149017,-0.410004l-1.17099,-0.373001l-1.187012,-0.334999l-1.204987,-0.296997l-1.216003,-0.258003l-1.230988,-0.218994l-1.240021,-0.18l-1.248993,-0.141006l-1.253998,-0.099998l-1.259003,-0.059998l-1.26001,-0.021004l-1.260986,0.021004l-1.257996,0.059998l-1.255005,0.099998l-1.248993,0.141006l-1.240021,0.18l-1.22998,0.218994l-1.21701,0.258003l-1.20401,0.296997l-1.187988,0.334999l-1.170013,0.373001l-1.149994,0.410004l-1.127991,0.445999l-1.104004,0.482002l-1.07901,0.514999l-1.051971,0.550995l-1.02301,0.583l-0.992004,0.616005l-0.960999,0.646996l-0.927002,0.677002l-0.891998,0.705002l-0.855011,0.734001l-0.816986,0.760994l-0.777008,0.786003l-0.737,0.809998l-0.695007,0.832001l-0.652985,0.854004l-0.608002,0.875l-0.563995,0.892998l-0.516998,0.910004l-0.470001,0.925995l-0.424011,0.941002l-0.375,0.952003l-0.326996,0.964996l-0.277008,0.973999l-0.22699,0.981003l-0.177002,0.988998l-0.127014,0.992996l-0.075989,0.996002l-0.024994,0.998001l0,-76.801998l-0.024994,-0.993801l-0.076019,-0.993202l-0.126984,-0.989697l-0.175995,-0.984901l-0.226013,-0.977802l-0.277008,-0.9702l-0.324982,-0.961098l-0.374023,-0.949303l-0.421997,-0.936699l-0.468994,-0.922798l-0.514984,-0.907501l-0.561005,-0.889301l-0.606995,-0.871197l-0.650024,-0.851002l-0.692993,-0.830101l-0.734009,-0.807098l-0.774994,-0.7827l-0.812988,-0.757603l-0.85199,-0.731098l-0.889008,-0.7033l-0.923004,-0.674601l-0.957001,-0.643999l-0.989014,-0.6134l-1.018982,-0.582001l-1.049011,-0.5478l-1.074982,-0.514999l-1.100006,-0.479601l-1.125,-0.444599l-1.14502,-0.407801l-1.165985,-0.371399l-1.183014,-0.3339l-1.198975,-0.2962l-1.21402,-0.2572l-1.225983,-0.2188l-1.236023,-0.179201l-1.242981,-0.139299l-1.25,-0.100401l-1.253998,-0.059999l-1.256012,-0.020199l-1.256012,0.020199l-1.254974,0.059999l-1.249023,0.100401l-1.243988,0.139299l-1.235992,0.179201l-1.226013,0.2188l-1.213989,0.2572l-1.199005,0.2962l-1.183014,0.3339l-1.165985,0.371399l-1.144989,0.407801l-1.124023,0.444599l-1.100983,0.479601l-1.075012,0.514999l-1.048004,0.5478l-1.019989,0.582001l-0.989014,0.6134l-0.957001,0.643999l-0.922974,0.674601l-0.888,0.7033l-0.85202,0.731098l-0.813995,0.757603l-0.774994,0.7827l-0.734009,0.807098l-0.692993,0.830101l-0.649994,0.851002l-0.606018,0.871197l-0.560974,0.889301l-0.516022,0.907501l-0.468994,0.922798l-0.421997,0.936699l-0.373993,0.949303l-0.325012,0.961098l-0.276001,0.9702l-0.22699,0.977802l-0.175995,0.984901l-0.127014,0.989697l-0.074982,0.993202l-0.026001,0.993801l0,147.302006l-0.732025,-1.257004l-0.778992,-1.238998l-0.826004,-1.221008l-0.870987,-1.199997l-0.916,-1.179993l-0.959,-1.158005l-1.003006,-1.13501l-1.044006,-1.110992l-1.085999,-1.085007l-1.125992,-1.059998l-1.164001,-1.03299l-1.203995,-1.005005l-1.239014,-0.975998l-1.276993,-0.947006l-1.311005,-0.916l-1.345001,-0.884995l-1.377991,-0.854004l-1.408997,-0.819992l-1.439011,-0.787003l-1.468002,-0.753006l-1.494995,-0.718002l-1.522003,-0.682999l-1.54599,-0.645996l-1.570007,-0.610001l-1.591995,-0.572998l-1.613998,-0.535004l-1.632004,-0.498001l-1.649994,-0.459l-1.667007,-0.418991l-1.682007,-0.380005l-1.694992,-0.341003l-1.707001,-0.300995l-1.718002,-0.261002l-1.727005,-0.219009l-1.733994,-0.179993l-1.740005,-0.139008l-1.744995,-0.097l-1.746994,-0.056992l-1.75,-0.016006l-1.748001,0.025009l-1.747009,0.067001l-1.743988,0.108002l-1.739014,0.147995l-1.23999,0.139999l-1.23201,0.179993l-1.221985,0.219009l-1.210007,0.255997l-1.195007,0.296005l-1.179993,0.332001l-1.162994,0.369995l-1.142014,0.406998l-1.120987,0.442001l-1.098007,0.477997l-1.072998,0.511002l-1.046005,0.544998l-1.01799,0.57901l-0.988007,0.610001l-0.955994,0.639999l-0.923004,0.67099l-0.889008,0.699005l-0.85199,0.725998l-0.815002,0.753006l-0.776001,0.778l-0.737,0.802002l-0.694,0.825989l-0.654007,0.846008l-0.610001,0.865997l-0.564987,0.884995l-0.520004,0.902008l-0.475006,0.917999l-0.427002,0.931992l-0.37999,0.945007l-0.332001,0.955994l-0.283005,0.966003l-0.235001,0.973999l-0.184998,0.981003l-0.134995,0.985992l-0.085007,0.989014l-0.035995,0.990997l0.013992,0.991989l0.06601,0.990005l0.113998,0.988007l0.166,0.982986l0.212997,0.976013l0.263992,0.970001l0.312012,0.959991l0.360001,0.949997l0.408997,0.938004l0.455002,0.923996l0.500992,0.908005l0.548004,0.891998l0.591003,0.874008l0.634995,0.854996l0.678009,0.834l0.719986,0.811996l0.76001,0.78801l0.798996,0.762985l0.837006,0.738007l0.873993,0.710999l0.908997,0.682007l0.943008,0.653l0.974991,0.623001l1.006012,0.590988l1.034988,0.559006l1.061005,0.524994l1.087997,0.492004l1.112,0.457001l1.134003,0.421005l1.154007,0.384995l1.173996,0.348007l1.326996,0.391998l1.307007,0.431l1.285995,0.470001l1.264008,0.506989l1.237991,0.544006l1.212997,0.580002l1.182999,0.615997l1.154007,0.651001l1.123001,0.682999l1.089005,0.716995l1.054993,0.748001l1.018997,0.779999l0.98201,0.808014l0.941986,0.83699l0.902008,0.865005l0.860992,0.889999l0.819,0.914993l0.775009,0.939011l0.729004,0.960999l0.68399,0.981995l0.638,1.001007l0.589996,1.019989l0.541,1.036011l0.492004,1.051987l0.442001,1.065002l0.391006,1.077011l0.340988,1.088989l0.289001,1.098007l0.236008,1.106003l0.184998,1.112l0.132004,1.115997l0.080002,1.119995l0.025986,1.121002l0,9.806l0.026001,2.190002l0.077011,2.188995l0.128998,2.187988l0.181,2.186005l0.231003,2.182007l0.283997,2.179016l0.334991,2.173981l0.386002,2.169006l0.437012,2.161987l0.487,2.156006l0.539001,2.14801l0.588989,2.139984l0.639008,2.131012l0.690994,2.121002l0.738007,2.110992l0.789993,2.098999l0.837997,2.087006l0.888,2.074005l0.934998,2.061005l0.985001,2.046997l1.032013,2.031006l1.080994,2.016998l1.126999,2l1.175003,1.983002l1.220993,1.964996l1.268005,1.946991l1.311996,1.928009l1.358002,1.90799l1.403,1.888l1.447006,1.865997l1.490997,1.845001l1.533997,1.822998l1.576996,1.800018l1.619003,1.776001l1.660004,1.750977l1.701004,1.72702l1.741989,1.701996l1.781998,1.674988l1.821014,1.649017l1.858994,1.621979l1.897995,1.593994l1.93399,1.56601l1.971008,1.537018l2.006012,1.506989l2.042999,1.47699l2.076996,1.447998l2.109985,1.416016l2.143005,1.38501l2.175018,1.352997l1.302979,0.820984l1.270996,0.852997l1.234009,0.88501l1.200012,0.915009l1.161987,0.944l1.123993,0.971985l1.085022,1.001007l1.044006,1.027008l1.003998,1.052979l0.959991,1.077026l0.916992,1.099976l0.873016,1.123016l0.827972,1.143982l0.782013,1.165009l0.735016,1.182007l0.686981,1.200989l0.640015,1.218018l0.591003,1.233002l0.540985,1.246979l0.492004,1.259003l0.44101,1.272003l0.389984,1.282013l0.338989,1.289978l0.287018,1.299011l0.235992,1.304993l0.183014,1.311005l0.130981,1.313995l0.078003,1.317017l0.027008,1.317993l0,24.988007l0,0l0,0z" fill="#ffd4aa"/>
   <path id="path2993" d="m484.862762,330.73465l1.467651,-1.674866l1.423615,-1.697784l1.378693,-1.720825l1.334625,-1.743134l1.288025,-1.764709l1.243103,-1.784943l1.195587,-1.804474l1.148926,-1.824005l1.101349,-1.842773l1.052979,-1.859528l1.005432,-1.876251l0.954285,-1.892975l0.907745,-1.907593l0.855682,-1.9216l0.807343,-1.935455l0.755402,-1.948029l0.706085,-1.960571l0.653198,-1.971039l0.603973,-1.981506l0.550232,-1.99057l0.500946,-1.999603l0.447296,-2.006592l0.395294,-2.014221l0.343323,-2.019867l0.290527,-2.024689l0.236847,-2.029572l0.184906,-2.033051l0.131989,-2.035156l0.080109,-2.037262l0.026459,-2.037964m-250.014099,-223.654182l0,177.486046m62.390839,-177.486046l0,153.936043m187.62326,-46.563995l0,116.282135m-62.390869,-137.400375l0,67.682236m-62.617065,-77.133873l0,77.133873m-167.343384,52.07431l0,-9.806396m78.356781,135.914459l0,24.987854m170.355164,-24.987854l0,24.987854m-143.983887,-357.106289l-0.025543,-0.993881l-0.075714,-0.993179l-0.126801,-0.989712l-0.176056,-0.984829l-0.226288,-0.977852l-0.276428,-0.970188l-0.324829,-0.961109l-0.374176,-0.94928l-0.421692,-0.936729l-0.469299,-0.922791l-0.514984,-0.907463l-0.561737,-0.889339l-0.606567,-0.871208l-0.649719,-0.85099l-0.692871,-0.830101l-0.734283,-0.807091l-0.774719,-0.7827l-0.813477,-0.757618l-0.852234,-0.731121l-0.888336,-0.703239l-0.923523,-0.674671l-0.95697,-0.643999l-0.988678,-0.61334l-1.019531,-0.58198l-1.048553,-0.547819l-1.07489,-0.51506l-1.100525,-0.479511l-1.124268,-0.44467l-1.145386,-0.407719l-1.165619,-0.37149l-1.183258,-0.33386l-1.199097,-0.296209l-1.214081,-0.257181l-1.225464,-0.218849l-1.236145,-0.179121l-1.243073,-0.139399l-1.250122,-0.100361l-1.254608,-0.05994l-1.255432,-0.02022l-1.256317,0.02022l-1.254578,0.05994l-1.249268,0.100361l-1.243988,0.139399l-1.236053,0.179121l-1.225525,0.218849l-1.21405,0.257181l-1.199066,0.296209l-1.183289,0.33386l-1.165649,0.37149l-1.145386,0.407719l-1.124237,0.44467l-1.100494,0.479511l-1.074982,0.51506l-1.048553,0.547819l-1.019501,0.58198l-0.988708,0.61334l-0.95697,0.643999l-0.923492,0.674671l-0.888336,0.703239l-0.851349,0.731121l-0.814362,0.757618l-0.77475,0.7827l-0.734222,0.807091l-0.692902,0.830101l-0.649719,0.85099l-0.606598,0.871208l-0.560791,0.889339l-0.5159,0.907463l-0.469269,0.922791l-0.421722,0.936729l-0.374146,0.94928l-0.32486,0.961109l-0.275574,0.970188l-0.227173,0.977852l-0.176056,0.984829l-0.12677,0.989712l-0.075714,0.993179l-0.025543,0.993881m15.43512,298.989956l-2.175507,-1.352844l-2.142914,-1.384888l-2.11026,-1.416229l-2.076874,-1.447601l-2.042511,-1.4776l-2.006378,-1.506866l-1.971222,-1.536804l-1.934204,-1.566071l-1.897278,-1.594025l-1.859375,-1.621826l-1.820633,-1.649048l-1.781921,-1.675507l-1.742294,-1.701324l-1.700912,-1.727142l-1.660446,-1.751465l-1.619049,-1.775879l-1.576767,-1.800262l-1.53363,-1.82254l-1.491409,-1.84494l-1.446472,-1.866486l-1.403336,-1.88739l-1.357574,-1.908264l-1.312668,-1.927887l-1.267776,-1.946594l-1.2211,-1.965454l-1.174454,-1.98291l-1.127777,-2.000275l-1.080261,-2.016357l-1.032669,-2.031677l-0.984283,-2.046295l-0.935852,-2.060944l-0.887451,-2.074921l-0.838135,-2.086731l-0.789719,-2.099304l-0.738647,-2.110382l-0.690216,-2.121582l-0.63916,-2.130676l-0.588989,-2.139679l-0.538818,-2.148041l-0.487732,-2.155731l-0.436661,-2.162689l-0.38649,-2.169006l-0.334564,-2.173859l-0.283493,-2.178711l-0.231537,-2.182251l-0.180481,-2.18573l-0.12941,-2.187775l-0.077469,-2.189209l-0.025543,-2.189911m-18.749725,-86.114349l-1.240479,0.140091l-1.231674,0.17984l-1.22197,0.218826l-1.209671,0.25647l-1.195572,0.295532l-1.179718,0.332458l-1.162994,0.370087l-1.141876,0.406342l-1.121613,0.442581l-1.097855,0.477417l-1.073227,0.511566l-1.045883,0.545059l-1.017761,0.578461l-0.987793,0.609848l-0.956085,0.640564l-0.923569,0.670486l-0.88829,0.699036l-0.852219,0.726257l-0.815262,0.753418l-0.77562,0.777832l-0.736893,0.802231l-0.694641,0.825211l-0.653229,0.846115l-0.610123,0.866333l-0.565216,0.885178l-0.520325,0.901871l-0.474518,0.917938l-0.426987,0.931839l-0.380325,0.945099l-0.331924,0.956238l-0.283463,0.965973l-0.234192,0.973679l-0.185776,0.981339l-0.134705,0.985535l-0.085388,0.988983l-0.035217,0.991821l0.014084,0.991089l0.065155,0.990387l0.114456,0.98761l0.165512,0.983429l0.213959,0.976471l0.263229,0.969482l0.312531,0.960419l0.360092,0.949966l0.408478,0.937469l0.455185,0.924164l0.500931,0.908157l0.547607,0.89212l0.591614,0.873993l0.634766,0.855209l0.677902,0.833557l0.720169,0.811981l0.759766,0.788269l0.799423,0.763199l0.83725,0.737381l0.873337,0.710892l0.909439,0.682373l0.942902,0.65303l0.974609,0.622406l1.006302,0.591034l1.03447,0.558975l1.061752,0.525497l1.08815,0.492096l1.111938,0.456512l1.133942,0.42099l1.154205,0.385376l1.173553,0.347824m192.678467,-91.072678l-0.023773,-0.998062l-0.076599,-0.995956l-0.12677,-0.993202l-0.177002,-0.988976l-0.227081,-0.981369l-0.278198,-0.973656l-0.32663,-0.964615l-0.374176,-0.952751l-0.423492,-0.940224l-0.470978,-0.926277l-0.516815,-0.910263l-0.563446,-0.892838l-0.609222,-0.874702l-0.652405,-0.854446l-0.695465,-0.832191l-0.736908,-0.809891l-0.777405,-0.786179l-0.816101,-0.760399l-0.855774,-0.733894l-0.891815,-0.705376l-0.926178,-0.67672l-0.960541,-0.646805l-0.993042,-0.616127l-1.022156,-0.583359l-1.052917,-0.550621l-1.079376,-0.515747l-1.104034,-0.481613l-1.127777,-0.44606l-1.148895,-0.409821l-1.170929,-0.372902l-1.187653,-0.335236l-1.204376,-0.296883l-1.216705,-0.257881l-1.230804,-0.219559l-1.239563,-0.179817l-1.249298,-0.1408l-1.254517,-0.100342l-1.259033,-0.059952l-1.259827,-0.020218l-1.260712,0.020218l-1.258118,0.059952l-1.254547,0.100342l-1.249298,0.1408l-1.239594,0.179817l-1.230774,0.219559l-1.216675,0.257881l-1.204407,0.296883l-1.187622,0.335236l-1.170044,0.372902l-1.14978,0.409821l-1.127808,0.44606l-1.104004,0.481613l-1.079407,0.515747l-1.052002,0.550621l-1.023071,0.583359l-0.992188,0.616127l-0.96051,0.646805l-0.927032,0.67672l-0.891846,0.705376l-0.854828,0.733894l-0.817017,0.760399l-0.777374,0.786179l-0.736908,0.809891l-0.695526,0.832191l-0.652374,0.854446l-0.608368,0.874702l-0.563446,0.892838l-0.51767,0.910263l-0.470123,0.926277l-0.423431,0.940224l-0.375092,0.952751l-0.326599,0.964615l-0.277313,0.973656l-0.227142,0.981369l-0.176971,0.988976l-0.12677,0.993202l-0.076569,0.995956l-0.024658,0.998062m62.615295,9.451645l0.026428,-0.997391l0.076569,-0.996658l0.126801,-0.993164l0.176941,-0.988297l0.226257,-0.982071l0.277344,-0.973648l0.325714,-0.963928l0.376831,-0.953461l0.421722,-0.940216l0.471008,-0.926292l0.518524,-0.91024l0.563446,-0.892799l0.607513,-0.874031l0.652344,-0.854469l0.695496,-0.83287l0.736908,-0.809891l0.777374,-0.7855l0.817017,-0.760376l0.854889,-0.733925l0.891815,-0.706017l0.926178,-0.676773l0.96051,-0.646767l0.993073,-0.615417l1.023926,-0.583382l1.051178,-0.550613l1.078461,-0.516457l1.104889,-0.481613l1.127808,-0.446037l1.150665,-0.409843l1.169128,-0.372185l1.187683,-0.335236l1.203491,-0.296928l1.218475,-0.25856l1.229919,-0.219536l1.240479,-0.179863l1.248352,-0.140076l1.254578,-0.100357l1.258972,-0.060623l1.259827,-0.019547l1.260773,0.019547l1.259827,0.060623l1.253632,0.100357l1.248413,0.140076l1.240479,0.179863l1.229919,0.219536l1.21756,0.25856l1.204437,0.296928l1.187592,0.335236l1.16922,0.372185l1.14975,0.409843l1.128662,0.446037l1.104889,0.481613l1.079407,0.516457l1.051208,0.550613l1.023834,0.583382l0.992249,0.615417l0.959656,0.646767l0.927002,0.676773l0.892731,0.706017l0.853943,0.733925l0.817078,0.760376l0.777344,0.7855l0.737762,0.809891l0.695496,0.83287l0.652374,0.854469l0.607452,0.874031l0.563477,0.892799l0.518616,0.91024l0.469238,0.926292l0.423462,0.940216l0.375031,0.953461l0.32663,0.963928l0.277313,0.973648l0.227081,0.982071l0.176971,0.988297l0.126801,0.993164l0.076599,0.996658l0.024628,0.997391m-229.960434,109.95015l-0.026398,-1.121414l-0.079254,-1.119354l-0.13205,-1.116516l-0.184891,-1.111679l-0.236816,-1.106079l-0.288773,-1.097748l-0.340698,-1.088684l-0.390915,-1.077515l-0.44194,-1.064957l-0.492142,-1.051743l-0.541443,-1.036392l-0.589859,-1.019638l-0.637421,-1.001602l-0.684052,-0.98201l-0.729858,-0.960419l-0.77475,-0.938828l-0.818756,-0.915131l-0.861023,-0.890732l-0.90239,-0.864227l-0.942032,-0.837082l-0.981644,-0.808502l-1.018616,-0.779205l-1.055573,-0.74855l-1.08905,-0.716492l-1.122498,-0.683731l-1.154221,-0.650238l-1.183243,-0.616119l-1.212265,-0.580612l-1.238754,-0.54361l-1.263336,-0.507431l-1.28627,-0.469727l-1.307404,-0.43074l-1.326736,-0.39241m6.585342,-47.978851l1.738785,-0.148468l1.744019,-0.10733l1.746735,-0.06691l1.748459,-0.025101l1.749329,0.016052l1.747589,0.056442l1.744949,0.097549l1.739639,0.138718l1.73439,0.17981l1.72644,0.219574l1.718536,0.26062l1.707077,0.301117l1.694748,0.340851l1.682465,0.379807l1.666565,0.419617l1.649857,0.458572l1.632263,0.49765l1.613739,0.535278l1.591751,0.572922l1.570633,0.609879l1.545959,0.646759l1.522171,0.682312l1.494919,0.718613l1.467651,0.752686l1.439438,0.786911l1.40863,0.820343l1.377808,0.853806l1.345245,0.885147l1.310913,0.915817l1.27655,0.947189l1.239594,0.975769l1.203522,1.005051l1.164749,1.032867l1.126007,1.060104l1.085541,1.08519l1.044128,1.110977l1.002777,1.134689l0.959641,1.157654l0.915588,1.179962l0.870697,1.200195l0.825836,1.22113l0.779144,1.239197l0.732452,1.257339m36.019592,184.816116l-0.026428,-1.317963l-0.078369,-1.317261l-0.131134,-1.314545l-0.183167,-1.310303l-0.235931,-1.305389l-0.287018,-1.298462l-0.338959,-1.290771l-0.389984,-1.281738l-0.441071,-1.272003l-0.491272,-1.259491l-0.541412,-1.246765l-0.59079,-1.233002l-0.640015,-1.217651l-0.687592,-1.200806l-0.735138,-1.1828l-0.781799,-1.164642l-0.827576,-1.143768l-0.873352,-1.122742l-0.916473,-1.100555l-0.960541,-1.076813l-1.003632,-1.053101l-1.044128,-1.026672l-1.084656,-1.000854l-1.124237,-0.97229l-1.16214,-0.944366l-1.199951,-0.915131l-1.234344,-0.884491l-1.270386,-0.853058l-1.302948,-0.821045m190.939636,33.128479l0.024658,-1.8797l0.075684,-1.878326l0.125946,-1.877686l0.176056,-1.874176l0.227997,-1.871307l0.276459,-1.867249l0.327515,-1.861633l0.376801,-1.855927l0.427002,-1.849152l0.477173,-1.8414l0.525574,-1.833069l0.574066,-1.823944l0.623291,-1.813538l0.672607,-1.80307l0.721039,-1.791199l0.768616,-1.778687l0.816101,-1.764709l0.863647,-1.751465l0.909454,-1.736206l0.95697,-1.720123l1.002808,-1.704071l1.049377,-1.686707l1.09259,-1.668549l1.137482,-1.649719l1.181488,-1.630219l1.225525,-1.610016l1.269501,-1.589081l1.310913,-1.567474l1.351379,-1.545227m-226.942444,-103.508713l-0.025513,1.685272l-0.07663,1.684601l-0.127625,1.682495l-0.178741,1.680389l-0.228912,1.675537l-0.280823,1.671341l-0.331024,1.66507l-0.381195,1.658096l-0.431427,1.651123l-0.481583,1.642059l-0.530869,1.632324l-0.58017,1.621826l-0.629486,1.610733l-0.677887,1.597427l-0.726334,1.584946l-0.774734,1.570251m0,0l-0.786194,1.593292l-0.738647,1.606537l-0.692001,1.620453l-0.64357,1.632294l-0.596008,1.644165l-0.546738,1.654633l-0.498291,1.664337l-0.449005,1.67276l-0.400574,1.680389l-0.350403,1.68808l-0.300217,1.693634l-0.250916,1.698517l-0.200714,1.702698m200.539459,-117.979294l0.025543,-0.994553l0.076569,-0.992493l0.12677,-0.989685l0.175262,-0.984848l0.226227,-0.977814l0.277313,-0.970261l0.324005,-0.96109l0.375031,-0.949295l0.421692,-0.937424l0.468414,-0.922089l0.5159,-0.907471l0.560791,-0.889328l0.605743,-0.871216l0.651428,-0.8517l0.691132,-0.829376l0.735138,-0.807114l0.77475,-0.782684l0.813477,-0.757614l0.852234,-0.73111l0.889221,-0.703247l0.922638,-0.674683l0.957855,-0.643997l0.988678,-0.613342l1.019501,-0.58197l1.047668,-0.547806l1.075836,-0.515106l1.099609,-0.479477l1.123383,-0.444702l1.146271,-0.407715l1.166534,-0.37149l1.182404,-0.333817l1.199066,-0.296234l1.21405,-0.257172l1.225525,-0.218857l1.236938,-0.179123l1.243103,-0.139389l1.249268,-0.100342l1.254578,-0.059952l1.255463,-0.020203l1.256287,0.020203l1.254578,0.059952l1.249268,0.100342l1.244873,0.139389l1.236115,0.179123l1.224548,0.218857l1.214111,0.257172l1.199066,0.296234l1.183258,0.333817l1.165649,0.37149l1.146301,0.407715l1.124237,0.444702l1.100494,0.479477l1.074066,0.515106l1.048553,0.547806l1.018616,0.58197l0.989563,0.613342l0.95697,0.643997l0.924438,0.674683l0.887421,0.703247l0.852234,0.73111l0.814392,0.757614l0.773834,0.782684l0.734283,0.807114l0.693726,0.829376l0.648834,0.8517l0.606598,0.871216l0.560822,0.889328l0.5159,0.907471l0.470093,0.922089l0.420837,0.937424l0.373291,0.949295l0.326691,0.96109l0.275482,0.970261l0.226318,0.977814l0.176056,0.984848l0.126801,0.989685l0.075714,0.992493l0.025543,0.994553" stroke-miterlimit="4" stroke-linejoin="round" stroke-linecap="round" stroke-width="9" stroke="#000000" fill="#ffd4aa"/>
  </g>
 </g>
</svg>